<?xml version="1.0" encoding="UTF-8"?>
<svg id="Layer_1" data-name="Layer 1" xmlns="http://www.w3.org/2000/svg" viewBox="0 0 512 512">
  <defs>
    <style>
      .cls-1 {
        font-family: IBMPlexSansArabic-Bold, 'IBM Plex Sans Arabic';
        font-size: 71.25px;
        font-weight: 700;
      }

      .cls-1, .cls-2 {
        fill: #fff;
      }

      .cls-2, .cls-3 {
        stroke-width: 0px;
      }

      .cls-3 {
        fill: #1a73e8;
      }
    </style>
  </defs>
  <rect class="cls-3" x="-.5" y="-.5" width="513" height="513" rx="256.5" ry="256.5"/>
  <text class="cls-1" transform="translate(78.29 412.96)"><tspan x="0" y="0">ةماكم ءارجإ</tspan></text>
  <path class="cls-2" d="m308.93,231.15c-7.39-7.3-16.62-7.3-23.97,0-5.6,5.56-11.21,11.11-16.72,16.77-1.51,1.55-2.78,1.88-4.62.85-3.63-1.98-7.49-3.58-10.97-5.75-16.25-10.22-29.86-23.36-41.91-38.15-5.98-7.35-11.3-15.21-15.02-24.06-.75-1.79-.61-2.97.85-4.43,5.6-5.42,11.07-10.97,16.58-16.53,7.68-7.72,7.68-16.77-.05-24.54-4.38-4.43-8.76-8.76-13.14-13.19-4.52-4.52-8.99-9.09-13.56-13.56-7.39-7.21-16.62-7.21-23.97.05-5.65,5.56-11.07,11.26-16.81,16.72-5.32,5.04-8.01,11.21-8.57,18.41-.89,11.73,1.98,22.79,6.03,33.58,8.29,22.32,20.91,42.15,36.21,60.33,20.67,24.58,45.35,44.03,74.22,58.07,13,6.31,26.47,11.16,41.11,11.96,10.08.57,18.84-1.98,25.85-9.84,4.8-5.37,10.22-10.27,15.31-15.4,7.53-7.63,7.58-16.86.09-24.39-8.95-8.99-17.94-17.94-26.94-26.89h0Zm-8.99-37.53l17.38-2.97c-2.73-15.96-10.27-30.42-21.71-41.91-12.1-12.1-27.41-19.73-44.27-22.09l-2.45,17.47c13.04,1.84,24.91,7.72,34.28,17.09,8.85,8.85,14.65,20.06,16.77,32.4Zm27.17-75.54c-20.06-20.06-45.44-32.73-73.46-36.64l-2.45,17.47c24.21,3.39,46.15,14.36,63.48,31.65,16.44,16.44,27.22,37.2,31.13,60.04l17.38-2.97c-4.57-26.47-17.05-50.48-36.07-69.56h0Z"/>
</svg>