<?xml version="1.0" encoding="UTF-8"?>
<svg id="Layer_1" data-name="Layer 1" xmlns="http://www.w3.org/2000/svg" viewBox="0 0 512 512">
  <defs>
    <style>
      .cls-1 {
        fill: #d7cf00;
        stroke-width: 0px;
      }
    </style>
  </defs>
  <path class="cls-1" d="m470.92,336.07c-31.35,0-62.13-4.9-91.29-14.54-14.56-4.96-31.07-1.11-40.58,8.56l-57.57,43.46c-66.76-35.64-107.89-76.75-143.04-143.01l42.18-56.07c10.96-10.94,14.89-26.93,10.18-41.93-9.68-29.32-14.6-60.08-14.6-91.44C176.19,18.43,157.76,0,135.11,0H41.08C18.43,0,0,18.43,0,41.08c0,259.67,211.25,470.92,470.92,470.92,22.65,0,41.08-18.43,41.08-41.08v-93.76c0-22.65-18.43-41.08-41.08-41.08h0Z"/>
  <path class="cls-1" d="m270.22,113.78h-28.44c-7.86,0-14.22,6.36-14.22,14.22s6.36,14.22,14.22,14.22h28.44c23.53,0,42.67-19.14,42.67-42.67s-19.14-42.67-42.67-42.67c-7.85,0-14.22-6.38-14.22-14.22s6.37-14.22,14.22-14.22h28.44c7.85,0,14.22-6.35,14.22-14.2v-.02c0-7.85-6.36-14.22-14.21-14.22,0,0-.01,0-.02,0h-28.44C246.69,0,227.56,19.14,227.56,42.67s19.14,42.67,42.67,42.67c7.85,0,14.22,6.37,14.22,14.22,0,7.85-6.38,14.22-14.22,14.22h0Zm199.11-56.89c-7.85,0-14.22-6.37-14.22-14.22s6.38-14.22,14.22-14.22h28.44c7.85,0,14.22-6.35,14.22-14.2v-.02c0-7.85-6.36-14.22-14.21-14.22,0,0-.01,0-.02,0h-28.44c-23.53,0-42.67,19.14-42.67,42.67s19.14,42.67,42.67,42.67c7.85,0,14.22,6.37,14.22,14.22s-6.37,14.22-14.22,14.22h-28.44c-7.86,0-14.22,6.36-14.22,14.22s6.36,14.22,14.22,14.22h28.44c23.53,0,42.67-19.14,42.67-42.67s-19.14-42.67-42.67-42.67Zm-99.56,85.33c23.53,0,42.67-19.14,42.67-42.67v-56.89C412.44,19.14,393.3,0,369.78,0s-42.67,19.14-42.67,42.67v56.89c0,23.53,19.14,42.67,42.67,42.67Zm-14.22-99.56c0-7.85,6.37-14.22,14.22-14.22s14.22,6.38,14.22,14.22v56.89c0,7.85-6.37,14.22-14.22,14.22s-14.22-6.37-14.22-14.22v-56.89h0Z"/>
</svg>