<?xml version="1.0" encoding="UTF-8"?>
<svg id="Layer_1" data-name="Layer 1" xmlns="http://www.w3.org/2000/svg" viewBox="0 0 512 512">
  <defs>
    <style>
      .cls-1 {
        fill: #1e4ba0;
      }

      .cls-1, .cls-2, .cls-3, .cls-4 {
        fill-rule: evenodd;
        stroke-width: 0px;
      }

      .cls-2 {
        fill: #3764b9;
      }

      .cls-3 {
        fill: #fff;
      }

      .cls-4 {
        fill: #507dd2;
      }
    </style>
  </defs>
  <path class="cls-2" d="m256,512H127.98c-70.68,0-127.98-57.3-127.98-127.98V127.98C0,57.3,57.3,0,127.98,0h256.04c70.68,0,127.98,57.3,127.98,127.98v256.04c0,70.68-57.3,127.98-127.98,127.98h-48.02c0-22.09-17.91-40-40-40s-40,17.91-40,40Z"/>
  <path class="cls-4" d="m240.54,144.32h144.32c39.85.05,72.2-32.22,72.25-72.07.05-37.07-28-68.14-64.88-71.88-2.45-.14-4.88-.37-7.38-.37H127.98C57.3,0,0,57.3,0,127.98v256.88c0-132.84,107.69-240.54,240.54-240.54"/>
  <path class="cls-1" d="m384.02,254.94c-73.69,0-132.83,62.27-127.67,137.06,4.35,63.11,55.48,114.24,118.59,118.59,74.79,5.16,137.06-53.98,137.06-127.67V126.96c0,70.68-57.3,127.98-127.98,127.98"/>
  <path class="cls-3" d="m415.79,142.07c0,8.84-7.16,16-16,16h-47.04c-8.84,0-16,7.16-16,16v66.47h59.06c5.33,0,10.58,2.31,13.62,6.7,2.57,3.7,3.39,8.1,2.57,12.21l-9.45,47.27c-1.5,7.48-8.06,12.86-15.69,12.86h-53.55v192.43h-79.03v-192.43h-49.29c-8.84,0-16-7.16-16-16v-47.04c0-8.84,7.16-16,16-16h49.29v-65.52c0-53.01,42.97-95.99,95.99-95.99h49.52c8.84,0,16,7.16,16,16v47.04Z"/>
</svg>