<?xml version="1.0" encoding="UTF-8"?>
<svg id="Layer_1" data-name="Layer 1" xmlns="http://www.w3.org/2000/svg" viewBox="0 0 512 512">
  <defs>
    <style>
      .cls-1 {
        fill: #1e78ff;
      }

      .cls-1, .cls-2, .cls-3, .cls-4, .cls-5, .cls-6, .cls-7 {
        stroke-width: 0px;
      }

      .cls-2 {
        fill: #e60014;
      }

      .cls-3 {
        fill: #cddceb;
      }

      .cls-3, .cls-4, .cls-7 {
        fill-rule: evenodd;
      }

      .cls-4 {
        fill: #deebf5;
      }

      .cls-5 {
        fill: #ffb400;
      }

      .cls-6 {
        fill: #00b450;
      }

      .cls-7 {
        fill: #f0faff;
      }
    </style>
  </defs>
  <g>
    <path class="cls-4" d="m384.52,509.21h-255.59c-70.44,0-127.54-57.1-127.54-127.54V127.54C1.39,57.1,58.49,0,128.93,0h254.14C453.51,0,510.61,57.1,510.61,127.54v254.37c0,70.31-57,127.3-127.3,127.3"/>
    <path class="cls-7" d="m243.88,145.49h145.49c40.18.05,72.79-32.48,72.84-72.65.05-37.37-28.22-68.69-65.4-72.46C394.33.23,391.88,0,389.37,0H128.93C58.49,0,1.39,57.1,1.39,127.54v260.44c0-133.92,108.56-242.48,242.48-242.48"/>
    <path class="cls-3" d="m383.07,256.93c-73.13,0-131.88,61.55-127.28,135.67,3.94,63.51,55.63,115.2,119.15,119.15,74.12,4.6,135.67-54.15,135.67-127.28v-255.07c0,70.44-57.1,127.54-127.54,127.54"/>
  </g>
  <path class="cls-1" d="m413.87,260.71c0-6.35-.28-12.73-.84-19.07-.76-8.35-7.37-14.72-15.28-14.71-27.47-.03-90.05-.03-119.11-.03-8.49,0-15.37,7.3-15.37,16.31v31.83c0,8.8,7.14,15.94,15.94,15.94h68.74c-3.5,20.69-14.83,38.96-31.34,50.57v.02c0,22.95,17.53,41.56,39.16,41.56h11.37c29.67-28.98,46.72-71.78,46.72-122.41Z"/>
  <path class="cls-6" d="m258.27,417.6c39.62,1.11,78.18-12.93,107.8-39.27l-52.4-40.64c-45.88,29.37-106.89,15.98-136.26-29.9-4.33-6.77-7.83-14.05-10.39-21.67h-12.2c-23.13,0-41.88,18.75-41.88,41.88v.02c27.63,54.92,83.86,89.58,145.33,89.58Z"/>
  <path class="cls-5" d="m171.13,288.44c-6.82-20.19-6.82-42.07,0-62.26v-.02c0-23.13-18.75-41.88-41.88-41.88h-12.15c-23.06,45.95-23.06,100.1,0,146.05l54.03-41.9Z"/>
  <path class="cls-2" d="m260.3,158.66c18.52-.29,36.67,5.23,51.88,15.8,6.24,4.54,14.86,3.87,20.31-1.59,7.29-6.92,16.88-16.51,24.44-24.06,6.23-6.22,6.23-16.32,0-22.55-.48-.48-1-.93-1.54-1.35-27.55-20.23-60.92-30.97-95.1-30.6-61.5,0-117.74,34.68-145.33,89.63l54.03,41.9c12.89-39.65,49.62-66.66,91.31-67.17Z"/>
</svg>