<?xml version="1.0" encoding="UTF-8"?>
<svg id="Layer_1" data-name="Layer 1" xmlns="http://www.w3.org/2000/svg" viewBox="0 0 512 512">
  <defs>
    <style>
      .cls-1 {
        fill: #464646;
      }

      .cls-1, .cls-2, .cls-3 {
        fill-rule: evenodd;
      }

      .cls-1, .cls-2, .cls-3, .cls-4 {
        stroke-width: 0px;
      }

      .cls-2 {
        fill: #2d2d2d;
      }

      .cls-3 {
        fill: #141414;
      }

      .cls-4 {
        fill: #fff;
      }
    </style>
  </defs>
  <g>
    <path class="cls-2" d="m382.29,510.1h-253.63C58.13,510.1.95,452.93.95,382.39V127.71C.95,57.18,58.13,0,128.66,0h254.68c70.53,0,127.71,57.18,127.71,127.71v254.87c0,70.43-57.1,127.53-127.53,127.53"/>
    <path class="cls-1" d="m238.67,143.62h145.27c39.66.05,71.85-32.06,71.9-71.72.05-36.89-27.86-67.81-64.56-71.53-2.44-.14-4.86-.37-7.34-.37h-255.28C58.13,0,.95,57.18.95,127.71v255.28c0-132.2,107.17-239.37,239.37-239.37"/>
    <path class="cls-3" d="m383.34,256.58c-73.23,0-132.06,61.63-127.46,135.86,3.95,63.6,55.71,115.36,119.31,119.31,74.22,4.61,135.86-54.23,135.86-127.46v-255.42c0,70.53-57.18,127.71-127.71,127.71"/>
  </g>
  <path class="cls-4" d="m137.97,403.64l98.15-114.09,78.39,114.09h85.62l-116.42-169.42h0l108.27-125.86h-25.66l-94.01,109.28-75.09-109.28h-85.36l112.8,164.16-112.8,131.11h26.1Zm7.38-271.07h38.96l73.04,104.48,11.37,16.27,94.94,135.8h-38.97l-77.48-110.82h0s-11.37-16.27-11.37-16.27l-90.5-129.46Z"/>
</svg>