<?xml version="1.0" encoding="UTF-8"?>
<svg id="Layer_1" data-name="Layer 1" xmlns="http://www.w3.org/2000/svg" viewBox="0 0 512 512">
  <defs>
    <style>
      .cls-1 {
        fill: #212436;
        stroke-width: 0px;
      }
    </style>
  </defs>
  <path class="cls-1" d="m187.95,385.7v125.96h129.62v-127.91c0-40.22-37.63-71.77-80.05-62.24-29.44,6.62-49.57,34.01-49.57,64.19Z"/>
  <g>
    <path class="cls-1" d="m362.94,383.75v127.91h85.11c35.32,0,63.95-28.63,63.95-63.95v-194.44c0-11.07-4.3-21.72-12.01-29.67L318.7,27.74c-31.99-34.58-85.98-36.71-120.59-4.74-1.64,1.52-3.23,3.1-4.75,4.74L12.4,223.52C4.45,231.51,0,242.32,0,253.58v194.12C0,483.02,28.63,511.66,63.95,511.66h85.11v-127.91c.4-58.13,47.49-105.6,104.34-106.97,58.75-1.41,109.09,46.87,109.54,106.97Z"/>
    <path class="cls-1" d="m187.95,385.7v125.96h129.62v-127.91c0-40.22-37.63-71.77-80.05-62.24-29.44,6.62-49.57,34.01-49.57,64.19Z"/>
  </g>
</svg>