<?xml version="1.0" encoding="UTF-8"?>
<svg id="Layer_1" data-name="Layer 1" xmlns="http://www.w3.org/2000/svg" viewBox="0 0 512 512">
  <defs>
    <style>
      .cls-1 {
        fill: #212436;
        stroke-width: 0px;
      }
    </style>
  </defs>
  <path class="cls-1" d="m485.31,291.38l-40.52-145.8C404.27-.1,211.67-62.56,86.42,82.15c-9.92,11.47-16.52,25.45-19.81,40.25l-42.58,191.48c-1.82,8.16-1.64,16.69.5,24.77,15.29,57.53,60.93,87.91,107.4,87.91h23.76c11.72,57.72,68.01,95.01,125.73,83.29,41.97-8.52,74.76-41.32,83.29-83.29h35.96c8.33,0,16.62-1.94,23.98-5.84,54.8-29.06,73.56-83.01,60.69-129.34h-.02Zm-225.17,177.54c-26.83-.11-50.71-17.07-59.65-42.36h119.3c-8.94,25.3-32.82,42.25-59.65,42.36Zm172.13-115.74c-11.97,15.88-30.72,25.18-50.6,25.1h-248.91c-35.1,0-63.54-28.46-63.54-63.56,0-4.63.51-9.25,1.51-13.78l31.14-140.14c20.01-90.01,114.5-144.21,204.24-112.18,48.13,17.18,83.79,58.37,97.47,107.61l39.33,141.49c5.39,19.13,1.45,39.68-10.63,55.46Z"/>
</svg>