<?xml version="1.0" encoding="UTF-8"?>
<svg id="Layer_1" data-name="Layer 1" xmlns="http://www.w3.org/2000/svg" viewBox="0 0 512 512">
  <defs>
    <style>
      .cls-1 {
        opacity: .75;
      }

      .cls-2 {
        fill: #212436;
      }
    </style>
  </defs>
  <g class="cls-1">
    <g>
      <path class="cls-2" d="m208.45,208.71v184.33c-4.57,4.9-.6,8.87,4.3,8.87s8.87-3.97,11.55-8.87v-184.32c50.41-3.47,94.85-51.73,93.77-104.94-2.41-138.39-208.17-138.39-210.63.01-.24,54.65,42.74,100.59,96.45,104.91h4.57Zm4.3-173.85c11.49-.15,11.51,17.89,0,17.73-28.26.03-51.15,22.93-51.19,51.19,0,4.9-3.97,8.87-8.87,8.87s-8.87-3.97-8.87-8.87c.04-38.05,30.87-68.88,68.92-68.92Z"/>
      <path class="cls-2" d="m509.56,265.28c-47.36-92.1-220.71-27.08-274.22-18.87-11.42-4.86-2.75,143.41-5.29,146.17,0,14.43-11.21,26.74-25.62,27.29-14.71.57-27.09-10.9-27.66-25.6-.01-.35-.02-.7-.02-1.05v-127.75c0-3.6-2.74-6.61-6.33-6.94-55.93-7.37-121.79-50.12-165.99,5.9-1.32,1.55-2.04,3.52-2.04,5.55v195.32c.02,4.85,3.96,8.77,8.82,8.75,1.88,0,3.71-.62,5.21-1.74,8.1-6.2,17.35-10.74,27.22-13.34,48.07-10.69,78.44,35.47,125.87,47.31,87.34,23.47,129.94-33.48,232.58-23.84,32.63,1.56,64.95,7.11,96.23,16.53,4.65,1.39,9.54-1.26,10.93-5.91.24-.82.37-1.66.37-2.51l-.05-225.27Z"/>
    </g>
  </g>
</svg>