<?xml version="1.0" encoding="UTF-8"?>
<svg id="Layer_1" data-name="Layer 1" xmlns="http://www.w3.org/2000/svg" viewBox="0 0 512 512">
  <defs>
    <style>
      .cls-1 {
        opacity: .75;
      }

      .cls-2 {
        fill: #212436;
      }
    </style>
  </defs>
  <g class="cls-1">
    <path class="cls-2" d="m252.8,244.32c33.56,0,62.63-12.04,86.38-35.79,23.75-23.75,35.79-52.8,35.79-86.37s-12.04-62.62-35.79-86.38C315.42,12.04,286.36,0,252.8,0s-62.63,12.04-86.38,35.79c-23.75,23.75-35.79,52.81-35.79,86.37s12.04,62.63,35.79,86.38c23.75,23.74,52.81,35.79,86.37,35.79Zm213.76,150.48c-.69-9.88-2.07-20.66-4.11-32.05-2.06-11.47-4.71-22.31-7.88-32.22-3.28-10.24-7.73-20.36-13.24-30.05-5.72-10.06-12.44-18.82-19.98-26.03-7.88-7.54-17.53-13.61-28.69-18.03-11.12-4.4-23.45-6.63-36.63-6.63-5.18,0-10.18,2.12-19.86,8.42-6.87,4.48-13.77,8.92-20.68,13.33-6.64,4.23-15.65,8.2-26.76,11.79-10.85,3.51-21.86,5.29-32.73,5.29s-21.88-1.78-32.74-5.29c-11.1-3.59-20.11-7.55-26.74-11.79-7.7-4.92-14.66-9.41-20.7-13.34-9.66-6.3-14.67-8.42-19.85-8.42-13.19,0-25.51,2.23-36.63,6.64-11.15,4.42-20.81,10.48-28.7,18.03-7.53,7.21-14.26,15.97-19.97,26.03-5.51,9.69-9.96,19.8-13.25,30.06-3.17,9.91-5.82,20.75-7.88,32.22-2.04,11.37-3.42,22.15-4.11,32.06-.68,9.97-1.02,19.96-1.01,29.95,0,26.48,8.42,47.91,25.01,63.72,16.39,15.6,38.08,23.51,64.46,23.51h244.22c26.38,0,48.06-7.91,64.45-23.51,16.6-15.8,25.02-37.23,25.02-63.72,0-10.22-.35-20.3-1.03-29.96h0Z"/>
  </g>
</svg>