<?xml version="1.0" encoding="UTF-8"?>
<svg id="Layer_1" data-name="Layer 1" xmlns="http://www.w3.org/2000/svg" viewBox="0 0 512 512">
  <defs>
    <style>
      .cls-1 {
        opacity: .75;
      }

      .cls-2 {
        fill: #212436;
      }
    </style>
  </defs>
  <g class="cls-1">
    <g>
      <path class="cls-2" d="m365.52,218.14c-13.26,0-24-10.75-24-24v-64.36c0-34.07-21.11-65.48-53.53-75.92-55.4-17.84-106.47,22.99-106.47,75.75v64.52c0,13.26-10.75,24-24,24s-24-10.75-24-24v-62.1c0-64.19,45.52-121.56,109.06-130.68,79.11-11.35,146.95,49.73,146.95,126.64v66.13c0,13.26-10.75,24-24,24Z"/>
      <path class="cls-2" d="m422.64,200.12c-62.33-61.77-271.01-61.77-333.29,0-35.5,35.16-38.24,110.53-38.24,132.79s2.74,97.63,38.24,132.79c31.17,30.86,98.88,46.3,166.64,46.3s135.5-15.42,166.64-46.3c35.5-35.16,38.24-110.53,38.24-132.79s-2.74-97.63-38.24-132.79h0Zm-145.13,134.91v21.34c0,13.26-10.75,24-24,24s-24-10.75-24-24v-21.36c-14.82-13.26-16.09-36.02-2.83-50.84,13.26-14.82,36.02-16.09,50.84-2.83,14.82,13.26,16.09,36.02,2.83,50.84-.89,1-1.84,1.94-2.83,2.83v.02Z"/>
    </g>
  </g>
</svg>