<?xml version="1.0" encoding="UTF-8"?>
<svg id="Layer_1" data-name="Layer 1" xmlns="http://www.w3.org/2000/svg" viewBox="0 0 512 512">
  <defs>
    <style>
      .cls-1 {
        fill: #4ab017;
        stroke-width: 0px;
      }
    </style>
  </defs>
  <path class="cls-1" d="m373.29,31.07c-24.01.37-47.5,7.08-68.1,19.43-20.59,12.36-37.56,29.93-49.19,50.94-11.63-21.01-28.6-38.58-49.19-50.94-20.59-12.36-44.08-19.06-68.09-19.43-38.28,1.66-74.34,18.41-100.32,46.58C12.43,105.81-1.34,143.12.1,181.41c0,96.96,102.06,202.86,187.66,274.66,19.11,16.06,43.28,24.87,68.24,24.87s49.13-8.81,68.24-24.87c85.6-71.8,187.66-177.7,187.66-274.66,1.45-38.29-12.32-75.59-38.29-103.76-25.97-28.17-62.04-44.92-100.31-46.58Zm-72.75,392.38c-11.43,9.62-25.89,14.9-40.84,14.9s-29.41-5.28-40.84-14.9C109.3,331.51,46.46,243.31,46.46,181.41c-1.46-26.98,7.81-53.45,25.79-73.62,17.98-20.17,43.2-32.42,70.17-34.07,26.97,1.65,52.2,13.9,70.17,34.07,17.98,20.17,27.25,46.64,25.79,73.62,0,5.66,2.25,11.08,6.25,15.08,4,4,9.42,6.25,15.08,6.25s11.08-2.25,15.08-6.25c4-4,6.25-9.42,6.25-15.08-1.46-26.98,7.81-53.45,25.79-73.62,17.98-20.17,43.2-32.42,70.17-34.07,26.97,1.65,52.2,13.9,70.17,34.07,17.97,20.17,27.25,46.64,25.79,73.62,0,61.91-62.85,150.11-172.41,241.95,0,0,0,.08,0,.08Z"/>
</svg>