<?xml version="1.0" encoding="UTF-8"?>
<svg id="Layer_1" data-name="Layer 1" xmlns="http://www.w3.org/2000/svg" viewBox="0 0 512 512">
  <defs>
    <style>
      .cls-1 {
        fill: #4ab017;
        stroke-width: 0px;
      }
    </style>
  </defs>
  <path class="cls-1" d="m253.46,171.4c-16.73,0-33.09,4.96-47,14.26-13.91,9.3-24.76,22.51-31.16,37.97-6.4,15.46-8.08,32.47-4.81,48.88,3.26,16.41,11.32,31.49,23.15,43.32,11.83,11.83,26.91,19.89,43.32,23.16,16.41,3.26,33.42,1.59,48.88-4.82,15.46-6.4,28.67-17.25,37.97-31.16,9.3-13.91,14.26-30.27,14.26-47,0-22.44-8.92-43.96-24.78-59.83-15.87-15.87-37.39-24.78-59.83-24.78Zm0,126.91c-8.37,0-16.55-2.48-23.5-7.13-6.96-4.65-12.38-11.26-15.58-18.98-3.2-7.73-4.04-16.24-2.41-24.44,1.63-8.21,5.66-15.74,11.58-21.66,5.92-5.92,13.45-9.95,21.66-11.58,8.21-1.63,16.71-.79,24.44,2.41,7.73,3.2,14.34,8.62,18.98,15.58,4.65,6.96,7.13,15.14,7.13,23.5,0,11.22-4.46,21.98-12.39,29.91-7.93,7.93-18.69,12.39-29.91,12.39Z"/>
  <path class="cls-1" d="m454.27,296.53l-9.47-5.46c4.26-23.2,4.26-46.99,0-70.19l9.47-5.46c7.28-4.2,13.67-9.8,18.79-16.47,5.12-6.67,8.88-14.28,11.06-22.41,2.18-8.12,2.74-16.59,1.64-24.93-1.09-8.34-3.82-16.38-8.02-23.66-4.2-7.28-9.8-13.67-16.47-18.79-6.67-5.12-14.28-8.88-22.41-11.06-8.12-2.18-16.59-2.74-24.93-1.64-8.34,1.1-16.38,3.82-23.66,8.02l-9.49,5.48c-17.93-15.32-38.53-27.19-60.78-35.03v-15.9c0-1.5-.1-3.03-.37-4.51C313.57,20.87,285.86,0,256,0s-57.57,20.87-63.63,54.53c-.27,1.48-.37,3.01-.37,4.51v15.9c-22.24,7.86-42.84,19.77-60.76,35.11l-13.75-7.97c-1.31-.76-2.69-1.44-4.11-1.95-32.23-11.62-64.2,1.96-79.14,27.86-14.93,25.88-10.7,60.33,15.45,82.41,1.15.97,2.43,1.83,3.73,2.58l13.76,7.93c-4.26,23.2-4.26,46.99,0,70.19l-13.77,7.94c-1.3.75-2.58,1.61-3.73,2.58-26.14,22.09-30.37,56.53-15.44,82.41,14.95,25.91,46.94,39.5,79.17,27.84,1.41-.51,2.79-1.19,4.09-1.94l13.7-7.92c17.94,15.32,38.55,27.2,60.8,35.03v15.89c0,1.5.1,3.03.37,4.51,6.06,33.67,33.77,54.54,63.63,54.54s57.57-20.87,63.63-54.54c.27-1.48.37-3.01.37-4.51v-15.89c22.24-7.86,42.84-19.77,60.76-35.11l13.78,7.95c1.3.75,2.68,1.43,4.09,1.94,32.24,11.63,64.2-1.96,79.14-27.85,8.49-14.71,10.78-32.19,6.38-48.59-4.4-16.4-15.14-30.39-29.85-38.87l-.02.02Zm-55.5-77.36c6.96,25.23,6.96,51.87,0,77.1-1.22,4.39-.94,9.06.79,13.28,1.72,4.22,4.8,7.74,8.75,10.02l22.29,12.87c4.72,2.73,8.17,7.22,9.58,12.49,1.42,5.27.68,10.88-2.05,15.61-2.73,4.72-7.22,8.17-12.49,9.58-5.27,1.42-10.88.68-15.61-2.05l-22.33-12.91c-3.95-2.29-8.55-3.2-13.07-2.58-4.52.61-8.71,2.71-11.91,5.97-18.3,18.68-41.35,32.01-66.67,38.55-4.42,1.13-8.34,3.71-11.13,7.31-2.8,3.61-4.31,8.04-4.31,12.61v29.35s-8.26,10.99-12.22,14.96c-3.97,3.97-9.35,6.2-14.96,6.2s-10.99-2.23-14.96-6.2c-3.97-3.97-7.1-14.96-7.1-14.96v-26.48s-.66-9.25-3.53-12.97c-2.88-3.71-6.9-6.36-11.45-7.53-26.05-6.75-49.76-20.5-68.57-39.74-3.29-3.35-7.6-5.51-12.25-6.15-4.65-.63-9.38.3-13.45,2.66l-22.93,13.26c-2.41,1.41-5.07,2.33-7.83,2.71-2.76.38-5.57.2-8.27-.51-2.7-.71-5.23-1.95-7.44-3.65-2.22-1.69-4.07-3.81-5.47-6.22-1.39-2.42-2.3-5.08-2.66-7.85-.36-2.77-.17-5.58.56-8.27.73-2.69,1.99-5.21,3.7-7.42,1.71-2.21,3.84-4.05,6.26-5.43l22.93-13.24c4.06-2.34,7.23-5.97,9-10.31,1.78-4.34,2.06-9.14.81-13.66-7.16-25.95-7.16-53.36,0-79.32,1.23-4.51.93-9.3-.85-13.62-1.78-4.32-4.94-7.93-8.99-10.26l-22.93-13.24c-4.86-2.8-8.41-7.43-9.86-12.85-1.45-5.42-.69-11.2,2.11-16.06,2.8-4.86,7.43-8.41,12.85-9.86,5.42-1.45,11.2-.69,16.06,2.11l22.97,13.28c4.05,2.36,8.77,3.3,13.42,2.69,4.65-.62,8.96-2.76,12.26-6.09,18.83-19.22,42.54-32.93,68.59-39.66,4.56-1.17,8.6-3.83,11.48-7.56,2.88-3.73,13.33-13.02,13.33-13.02v-27.21c0-5.22,2.07-10.23,5.77-13.92,3.69-3.69,8.7-5.77,13.92-5.77s10.23,2.07,13.92,5.77c3.69,3.69,5.77,8.7,5.77,13.92v28.94c0,4.56,1.51,9,4.31,12.61,2.8,3.61,6.71,6.18,11.13,7.32,25.33,6.56,48.39,19.92,66.69,38.64,3.2,3.26,7.39,5.36,11.91,5.97,4.52.61,9.12-.29,13.07-2.58l22.29-12.89c2.34-1.37,4.93-2.27,7.61-2.63,2.69-.37,5.42-.2,8.04.49,2.62.69,5.08,1.9,7.24,3.55,2.15,1.65,3.96,3.7,5.32,6.05,1.35,2.35,2.23,4.94,2.58,7.63.35,2.69.16,5.42-.55,8.04-.71,2.62-1.93,5.07-3.59,7.21-1.66,2.14-3.73,3.94-6.09,5.28l-22.29,12.87c-3.93,2.28-6.99,5.79-8.71,9.99-1.72,4.2-2,8.85-.81,13.23v4.56Z"/>
</svg>