<?xml version="1.0" encoding="UTF-8"?>
<svg id="Layer_1" data-name="Layer 1" xmlns="http://www.w3.org/2000/svg" viewBox="0 0 512 512">
  <defs>
    <style>
      .cls-1 {
        fill: #374856;
        stroke-width: 0px;
      }
    </style>
  </defs>
  <path class="cls-1" d="m506.45,48.98v84.37c2.23,11.65-7.21,21.09-18.86,21.09s-21.09-9.44-29.77-21.09v-54.02l-103.11,111.17c-7.56,8.86-20.87,9.92-29.73,2.36-8.86-7.56-9.92-20.87-2.36-29.73.78-.92,1.64-1.77,2.57-2.54l112-111.96h-55.05c-11.65.35-21.09-9.1-21.09-20.75s9.44-21.09,21.09-27.89h84.37c23.3,6.8,42.18,25.68,39.95,48.98Zm-68.32,271.16c-25.3-24.07-65.04-24.01-90.27.13l-40.2,33.87c-66.28-27.42-118.9-80.13-146.21-146.46l33.75-40.07c24.14-25.23,24.2-64.98.13-90.27,0,0-39.06-50.73-39.69-51.4C130.56.73,89.92.3,64.33,24.96l-24.23,21.09C-122.73,219.19,297.42,639.53,470.37,474.21l19.24-22.13c25.45-25.52,25.45-66.82,0-92.34-.7-.55-51.49-39.61-51.49-39.61Z"/>
</svg>