<?xml version="1.0" encoding="UTF-8"?>
<svg id="Layer_1" data-name="Layer 1" xmlns="http://www.w3.org/2000/svg" viewBox="0 0 512 512">
  <defs>
    <style>
      .cls-1 {
        fill: #4ab017;
        stroke-width: 0px;
      }
    </style>
  </defs>
  <path class="cls-1" d="m489.69,72.43H22.31c-12.33,0-22.31-9.98-22.31-22.31s9.98-22.31,22.31-22.31h467.38c12.33,0,22.31,9.98,22.31,22.31s-9.98,22.31-22.31,22.31Z"/>
  <path class="cls-1" d="m360.11,278.31H22.31c-12.33,0-22.31-9.98-22.31-22.31s9.98-22.31,22.31-22.31h337.81c12.33,0,22.31,9.98,22.31,22.31s-9.98,22.31-22.31,22.31Z"/>
  <path class="cls-1" d="m489.69,484.19H22.31c-12.33,0-22.31-9.98-22.31-22.31s9.98-22.31,22.31-22.31h467.38c12.33,0,22.31,9.99,22.31,22.31s-9.98,22.31-22.31,22.31Z"/>
</svg>