<?xml version="1.0" encoding="UTF-8"?>
<svg id="Layer_1" data-name="Layer 1" xmlns="http://www.w3.org/2000/svg" viewBox="0 0 512 512">
  <defs>
    <style>
      .cls-1 {
        fill: #374856;
        stroke-width: 0px;
      }
    </style>
  </defs>
  <circle class="cls-1" cx="256" cy="256" r="53.76"/>
  <path class="cls-1" d="m256,0C114.62,0,0,114.62,0,256s114.62,256,256,256,256-114.62,256-256S397.38,0,256,0Zm158.17,321.06c-1.23,24.34-8.07,48.34-25.8,65.89-17.91,17.72-42.02,24.32-66.6,25.53h-131.53c-24.58-1.22-48.69-7.81-66.6-25.53-17.74-17.55-24.58-41.55-25.8-65.89v-130.13c1.23-24.34,8.07-48.34,25.8-65.89,17.91-17.72,42.02-24.32,66.6-25.53h131.53c24.58,1.22,48.69,7.81,66.6,25.53,17.74,17.55,24.58,41.55,25.8,65.89v130.13Z"/>
  <path class="cls-1" d="m320.1,129.17c-32.04-.88-96.16-.88-128.2,0-16.67.46-35.57,4.61-47.45,17.3-12.34,13.19-17.01,29.12-17.48,46.95-.83,31.29,0,125.19,0,125.19.54,17.82,5.14,33.76,17.48,46.95,11.88,12.69,30.78,16.84,47.45,17.3,32.04.88,96.16.88,128.2,0,16.67-.46,35.57-4.61,47.45-17.3,12.34-13.19,17.01-29.12,17.48-46.95v-125.19c-.47-17.82-5.14-33.76-17.48-46.95-11.88-12.69-30.78-16.84-47.45-17.3h0Zm-64.1,210.16c-46.02,0-83.33-37.31-83.33-83.33s37.31-83.33,83.33-83.33,83.33,37.31,83.33,83.33h0c0,46.02-37.31,83.33-83.33,83.33Zm83.68-149.46c-9.2,0-16.66-7.47-16.66-16.67,0-9.2,7.47-16.66,16.67-16.66,9.2,0,16.66,7.46,16.66,16.67s-7.46,16.67-16.67,16.67h0Z"/>
</svg>