<?xml version="1.0" encoding="UTF-8"?>
<svg id="Layer_1" data-name="Layer 1" xmlns="http://www.w3.org/2000/svg" viewBox="0 0 512 512">
  <defs>
    <style>
      .cls-1 {
        fill: #d7cf00;
        stroke-width: 0px;
      }
    </style>
  </defs>
  <path class="cls-1" d="m389.05,47.72C340.16,7.69,275.9-8.31,213.95,4.13,100.63,27.36,27.6,138.06,50.83,251.38c10.12,49.37,37.7,93.43,77.68,124.11,36.37,26.62,67.34,59.93,91.25,98.14l16.29,27.09c6.62,11.02,20.92,14.58,31.94,7.95,3.26-1.96,5.99-4.69,7.95-7.95l15.62-26.02c20.82-36.6,49.21-68.34,83.27-93.09,95.19-65.5,119.27-195.76,53.77-290.95-11.1-16.13-24.4-30.62-39.53-43.05l-.02.12Zm-133.07,254.86c-51.41,0-93.09-41.68-93.09-93.09s41.68-93.09,93.09-93.09,93.09,41.68,93.09,93.09-41.68,93.09-93.09,93.09Z"/>
</svg>