<?xml version="1.0" encoding="UTF-8"?>
<svg id="Layer_1" data-name="Layer 1" xmlns="http://www.w3.org/2000/svg" viewBox="0 0 512 512">
  <defs>
    <style>
      .cls-1 {
        fill: #fff;
      }

      .cls-1, .cls-2 {
        stroke-width: 0px;
      }

      .cls-2 {
        fill: #4ab017;
      }
    </style>
  </defs>
  <path class="cls-2" d="m76.37,0h435.63c0,282.77-229.23,512-512,512H0V76.37C0,34.19,34.19,0,76.37,0Z"/>
  <g>
    <path class="cls-1" d="m88.06,238.47c-5.01,0-8.94-1.33-11.78-3.98-2.85-2.65-4.27-6.78-4.27-12.37v-10.75h13.11v10.46h20.03c5.2,0,8.79-.44,10.75-1.33,1.96-.88,2.95-2.55,2.95-5.01,0-1.08-.25-2.43-.74-4.05-.49-1.62-1.18-3.71-2.06-6.26l-13.7-38.15,13.99-5.01,15.03,41.69c1.27,3.63,2.48,6.61,3.61,8.91,1.13,2.31,2.28,4.15,3.46,5.52,1.18,1.38,2.43,2.33,3.76,2.87,1.33.54,2.87.81,4.64.81h3.98v13.11l-3.68,3.54c-3.24,0-6.09-.27-8.54-.81-2.46-.54-4.64-1.42-6.56-2.65-1.92-1.23-3.63-2.87-5.16-4.93-1.52-2.06-3.02-4.66-4.49-7.81l-.74.15c-.88,5.8-2.85,9.92-5.89,12.37-3.05,2.46-7.71,3.68-13.99,3.68h-13.7Z"/>
    <path class="cls-1" d="m147.28,225.36l3.54-3.54h3.09c6.68,0,11.39-.76,14.14-2.28,2.75-1.52,4.12-4.29,4.12-8.32,0-1.67-.12-3.78-.37-6.33-.25-2.55-.71-5.94-1.4-10.17l-2.36-12.82,12.82-2.06,1.92,12.82c1.18,7.86,1.77,14.04,1.77,18.56,0,9.23-2.5,16.08-7.51,20.55-5.01,4.47-12.72,6.7-23.13,6.7h-6.63v-13.11Zm13.4,43.6c-2.26,0-4.05-.69-5.38-2.06-1.33-1.38-1.99-3.49-1.99-6.33s.66-5.08,1.99-6.41c1.33-1.33,3.12-1.99,5.38-1.99h2.21c2.26,0,4.07.66,5.45,1.99,1.37,1.33,2.06,3.46,2.06,6.41s-.69,4.96-2.06,6.33c-1.38,1.37-3.19,2.06-5.45,2.06h-2.21Zm20.77,0c-2.26,0-4.05-.69-5.38-2.06-1.33-1.38-1.99-3.49-1.99-6.33s.66-5.08,1.99-6.41c1.33-1.33,3.12-1.99,5.38-1.99h2.21c2.26,0,4.07.66,5.45,1.99,1.37,1.33,2.06,3.46,2.06,6.41s-.69,4.96-2.06,6.33c-1.38,1.37-3.19,2.06-5.45,2.06h-2.21Z"/>
    <path class="cls-1" d="m210.77,238.47c-5.01,0-8.94-1.33-11.78-3.98-2.85-2.65-4.27-6.78-4.27-12.37v-10.75h13.11v10.46h20.03c5.2,0,8.79-.44,10.75-1.33,1.96-.88,2.95-2.55,2.95-5.01,0-1.08-.25-2.43-.74-4.05-.49-1.62-1.18-3.71-2.06-6.26l-13.7-38.15,13.99-5.01,15.03,41.69c1.27,3.63,2.48,6.61,3.61,8.91,1.13,2.31,2.28,4.15,3.46,5.52,1.18,1.38,2.43,2.33,3.76,2.87,1.33.54,2.87.81,4.64.81h3.98v13.11l-3.68,3.54c-3.24,0-6.09-.27-8.54-.81-2.46-.54-4.64-1.42-6.56-2.65-1.92-1.23-3.63-2.87-5.16-4.93-1.52-2.06-3.02-4.66-4.49-7.81l-.74.15c-.88,5.8-2.85,9.92-5.89,12.37-3.05,2.46-7.71,3.68-13.99,3.68h-13.7Z"/>
    <path class="cls-1" d="m269.98,225.36l3.54-3.54h7.22c4.81,0,9.23-.1,13.26-.29,4.03-.2,7.95-.66,11.78-1.4,3.83-.74,7.76-1.82,11.78-3.24,4.03-1.42,8.49-3.31,13.4-5.67l10.16-4.86v-.74l-22.69-4.86-26.96-6.63v11.93h-13.11v-11.4c0-5.33,1.3-9.31,3.9-11.92,2.6-2.62,6.26-3.92,10.97-3.92,1.28,0,2.77.15,4.49.45,1.72.3,4.49.94,8.32,1.93l32.7,8.48c9.43,2.48,17.53,3.72,24.31,3.72h2.65v16.65h-11.49l-17.38,10.9c-6.29,3.93-11.88,7.05-16.79,9.35-4.91,2.31-9.53,4.08-13.85,5.3-4.32,1.23-8.52,2.01-12.6,2.36-4.08.35-8.37.52-12.89.52h-10.75v-13.11Zm48.61,43.6c-2.26,0-4.05-.69-5.38-2.06-1.33-1.38-1.99-3.49-1.99-6.33s.66-5.08,1.99-6.41c1.33-1.33,3.12-1.99,5.38-1.99h2.21c2.26,0,4.07.66,5.45,1.99,1.37,1.33,2.06,3.46,2.06,6.41s-.69,4.96-2.06,6.33c-1.38,1.37-3.19,2.06-5.45,2.06h-2.21Z"/>
  </g>
</svg>