<?xml version="1.0" encoding="UTF-8"?>
<svg id="Layer_1" data-name="Layer 1" xmlns="http://www.w3.org/2000/svg" viewBox="0 0 512 512">
  <defs>
    <style>
      .cls-1 {
        fill: #ff5151;
        stroke-width: 0px;
      }
    </style>
  </defs>
  <path class="cls-1" d="m375.21,403.44c-73.24-27.84-91.24-29.94-101.07-53.35-5.74,0-43.41,11.05-70.81-4.86l-60.87,60.87c2.54,13.7,10.16,24.74,24.19,24.79h118.53c6.1-.05,11.05,4.9,11.05,11s-11.05,21.45-11.05,21.45h-146.47s-63.41,44.83-39.32,48.67h285.22c18.3-3.84,33.48-36.98,33.48-36.98v-9.72s-17.26-52.03-42.87-61.86Zm-116.98-266.66c9.06-1.59,16.19-8.63,17.9-17.67,5.85-29.16,16.02-29.6,13.59-59.1-24.5,17.32-36.77,47.24-31.48,76.77h0Zm126.37,84.17l-34.24,17.12,21.1,42.42c19.95-12.28,26.18-38.4,13.9-58.35-.25-.4-.5-.79-.76-1.18Z"/>
  <path class="cls-1" d="m254.36,262.83c5.43-5.43,7.65-13.3,5.85-20.77-25.52-108.25-23.86-99.42-24.74-108.36-4.16-39.3,15.36-77.33,49.71-96.88C260.66-27.91,163.67-1.07,152.62,69.07c-14.47,94.11-11.05,150.23-11.05,306.53l112.78-112.78Zm-34.57,65.84c12.37,4.97,36.78,2.1,49.82,0,30.15-5.24,58.73-17.21,83.62-35.02l-23.86-48.94-46.17,6.63c-2.98,20.88-9.06,23.42-63.41,77.32Z"/>
</svg>