<?xml version="1.0" encoding="UTF-8"?>
<svg id="Layer_1" data-name="Layer 1" xmlns="http://www.w3.org/2000/svg" viewBox="0 0 512 512">
  <defs>
    <style>
      .cls-1 {
        fill: #ff5151;
        stroke-width: 0px;
      }
    </style>
  </defs>
  <path class="cls-1" d="m380.91,284.36l-27.73,40.64-26.35-40.64h54.08Z"/>
  <path class="cls-1" d="m289.41,256c10.75,16.64,19.64,30.59,45.27,70.01l-30.93,24.01c-21.95-38-30.83-52.93-30.83-53.47l-32.21-55.82c14.48-12.18,35.3-29.46,64.76-54.01,2.09-1.75,2.36-4.86.61-6.95-1.75-2.09-4.86-2.36-6.95-.61h0l-52.04,43.4-24.25-37.46h11.49c2.71,0,4.91-2.2,4.91-4.91v-80.16h7.68c84.7-.04,153.66,68.07,154.68,152.76l-12.12,17.39h-69.47l-14.24-22.05c-1.62-2.49-4.95-3.19-7.44-1.57-2.49,1.62-1.57,9.44-1.57,9.44h-7.34Zm205.05,17.37v64.52c0,9.59-7.92,17.37-17.7,17.37h-10.66v-37.58c-.71-2.95-3.1-5.33-6.04-5.33s-5.33,2.39-8.14,5.33v37.58h-14.18v-99.25h39.02c9.78,0,17.7,7.78,17.7,17.37h0Zm-397.01,25.02v27.36l-36.71,9.25c-2.54.66-4.13,3.17-3.65,5.75l2.75,14.5h-27.76l-6.55-10,31.11-46.71,40.81-.15Zm326.12-42.28v99.15h-13.31c-12.84-16.68-31.41-28-52.12-31.78l45.95-67.47,19.49.11Zm-23.56,99.15h-73.65l28.05-21.76c17.28,1.69,33.42,9.39,45.6,21.76Zm112,8.88c0,2.95-2.39,5.33-5.33,5.3H5.33c-2.95.03-5.33-2.36-5.33-5.3s2.39-5.33,5.33-8.88h501.33c2.95,3.54,5.33,5.93,5.33,8.88Zm-163.47,62.02h-207.57c-2.95-4.79-5.33-7.18-5.33-10.12s2.39-5.33,5.33-4.06h207.57c2.95-1.28,5.33,1.11,5.33,4.06s-2.39,5.33-5.33,10.12Z"/>
  <path class="cls-1" d="m266.04,305.04c-.06,27.71-22.51,50.16-50.22,50.22h-104.2v-70.89h65.24l12.48,19.75c.96,1.56,2.62,2.5,4.41,2.5,2.9.03,5.27-2.37,5.3-5.38.01-1.11-.3-2.19-.9-3.11-18.56-29.44-4.25-6.8-74.47-118.24-7.86-12.51-12.06-27.13-12.06-42.06v-6.05c0-25.36,20.56-45.92,45.92-45.92h60.05c4.12,0,7.47,3.34,7.47,7.47v63.43h-17.53c-3.03-.07-5.55,2.34-5.61,5.37-.02,1.14.3,2.25.94,3.2l33.4,51.59-9.23,7.69c-2.05,1.72-2.56,4.67-1.21,6.98,40.11,69.61,40.22,67.8,40.22,73.46Z"/>
</svg>