<?xml version="1.0" encoding="UTF-8"?>
<svg id="Layer_1" data-name="Layer 1" xmlns="http://www.w3.org/2000/svg" viewBox="0 0 512 512">
  <defs>
    <style>
      .cls-1 {
        fill: #4ab017;
        stroke-width: 0px;
      }
    </style>
  </defs>
  <path class="cls-1" d="m256,162.91c-51.43,0-93.09,41.66-93.09,93.09s41.66,93.09,93.09,93.09,93.09-41.66,93.09-93.09-41.66-93.09-93.09-93.09h0Zm208.06,69.82c-10.71-97.05-87.74-174.08-184.79-184.78V0h-46.55v47.94c-97.05,10.71-174.08,87.74-184.78,184.78H0v46.55h47.94c10.71,97.05,87.74,174.08,184.79,184.79v47.94h46.54v-47.94c97.05-10.71,174.08-87.74,184.79-184.79h47.94v-46.55h-47.94,0Zm-208.06,186.18c-89.95,0-162.91-72.96-162.91-162.91s72.96-162.91,162.91-162.91,162.91,72.96,162.91,162.91-72.96,162.91-162.91,162.91Z"/>
</svg>