<?xml version="1.0" encoding="UTF-8"?>
<svg id="Layer_1" data-name="Layer 1" xmlns="http://www.w3.org/2000/svg" viewBox="0 0 512 512">
  <defs>
    <style>
      .cls-1 {
        fill: #ff5151;
        stroke-width: 0px;
      }
    </style>
  </defs>
  <path class="cls-1" d="m393.31,318.92c-10.85-6.99-25.14-5.28-34.03,4.07l-32.71,32.8c18.82,31.94-8.57,76.22-45.82,69.65l-53.44-9.12c-4.8-.83-8.04-5.38-7.27-10.19.88-4.81,5.44-8.05,10.27-7.27l53.09,9.05c34.03,4.93,43.48-46.63,11.88-56.38-28.89-9.18-77.51-20.96-101.2-38.1-27.85-20.28-66.22-17.71-91.11,6.11,9.55,4.52,13.38,20.24,17.09,29.16l36.25,93.23c3.16,6.45,5.25,13.36,6.21,20.48.91,3.79-2.86,8.23-.55,11.26l65.06,24.9c14.74,5.61,31.26,3.93,44.58-4.52,31.1-17.23,59.52-38.91,84.36-64.34,18.21-19.16,34.07-40.43,47.24-63.36,9.25-16.03,4.97-36.44-9.92-47.42h0Zm-295.63,20.7c-6.04-13.22-21.66-19.03-34.87-12.99-.28.13-.56.26-.84.4l-24.46,11.26c-13.82,6.15-20.61,21.89-15.59,36.16l47.15,121.41c2.51,6.51,7.61,11.69,14.09,14.28,14.73,6.8,33.33-6.89,46.53-12.06,13.81-6.21,20.59-21.95,15.59-36.24,0,0-47.41-121.95-47.59-122.21h0Zm147.27-207.94c12.57.14,55.45-.27,67.22.18l.05-3.33c.02-4.88,3.98-8.82,8.86-8.82h85.44c-.48-12.96-.06-63.1-.19-76.9-.3-6.3-.04-12.62.76-18.88h-128.01c-28,0-50.7,24.12-50.7,53.87h0v54.06c2.59-.36,13.76-.09,16.6-.18h-.02ZM482.13,0h-24.39c-20.87.05-37.78,15.25-37.84,34.01v74.64c0,19.33,15.67,35.01,35.01,35.01h27.22c5.3-.01,9.59-3.87,9.61-8.63V8.63c-.02-4.76-4.31-8.61-9.61-8.63Zm-253,203.52h77.09c29.11-.31,28.98-47.62,0-47.89h-77.09c-1.39.01-2.78.16-4.14.43-25.31,4.66-22.47,47.83,4.14,47.45Zm-97.08,55.32c18.2,4.59,37.76-15.31,53.88,6.56,2.96,3.93,8.54,4.71,12.47,1.75,2.7-2.04,4.02-5.43,3.39-8.75-.44-2.13-11.17-51.76-51.76-60.26-8.45-2.27-17.4-1.75-25.52,1.5-15.78,6.58-23.23,24.71-16.64,40.49,4.2,10.06,13.38,17.17,24.18,18.72h0Z"/>
  <path class="cls-1" d="m332.78,237.4c-40.59,8.41-51.32,58.13-51.76,60.26-.94,4.84,2.21,9.53,7.05,10.47.54.1,1.08.16,1.63.16,2.86,0,5.55-1.35,7.27-3.64,16.04-21.9,35.63-1.95,53.78-6.56,16.92-2.37,28.73-18,26.36-34.93-1.51-10.83-8.64-20.06-18.73-24.28-8.14-3.3-17.14-3.83-25.61-1.51h0Z"/>
</svg>