<?xml version="1.0" encoding="UTF-8"?>
<svg id="Layer_1" data-name="Layer 1" xmlns="http://www.w3.org/2000/svg" viewBox="0 0 512 512">
  <defs>
    <style>
      .cls-1 {
        fill: #383838;
        stroke-width: 0px;
      }
    </style>
  </defs>
  <g id="_01_align_center" data-name=" 01 align center">
    <path class="cls-1" d="M447.38,512h-44.74v-106.54c-.04-34.49-28.22-62.44-63-62.47h-172.26c-34.78.03-62.96,27.98-63,62.47v106.54h-39.77v-107.79c.07-58.49,47.22-105.88,105.41-105.95h171.94c58.19.07,105.34,47.47,105.41,105.95v107.79Z"/>
    <path class="cls-1" d="M255.53,255.24c-70.48,0-127.62-57.14-127.62-127.62S185.04,0,255.53,0s127.62,57.14,127.62,127.62c-.07,70.45-57.17,127.55-127.62,127.62ZM255.53,42.54c-46.99,0-85.08,38.09-85.08,85.08s38.09,85.08,85.08,85.08,85.08-38.09,85.08-85.08-38.09-85.08-85.08-85.08Z"/>
  </g>
</svg>