<?xml version="1.0" encoding="UTF-8"?>
<svg id="Layer_1" data-name="Layer 1" xmlns="http://www.w3.org/2000/svg" viewBox="0 0 512 512">
  <defs>
    <style>
      .cls-1 {
        fill: #383838;
        stroke-width: 0px;
      }
    </style>
  </defs>
  <path class="cls-1" d="M447.96,264.77v-29.46c0-102.83-86.45-186.19-193.09-186.19S61.78,132.48,61.78,235.31v28.17c-52.28,23.02-76.01,84.07-52.98,136.35,16.48,37.43,53.46,61.63,94.36,61.75,22.85,0,41.38-18.52,41.38-41.38v-127.59c0-22.85-18.52-41.38-41.38-41.38v-18.84c0-70.42,46.67-134.41,115.25-150.38,99.62-23.2,188.18,51.79,188.18,147.46v19.94c-22.85,0-41.38,19.26-41.38,43.02v129.06h-67.43c-11.85,0-21.45,9.26-21.45,20.69s9.61,20.69,21.45,20.69h107.27c59.24-.17,107.13-46.62,106.95-103.75-.13-40.9-25.23-77.88-64.04-94.36ZM103.16,422.51c-35.64,0-64.53-28.89-64.53-64.53s28.89-64.53,64.53-64.53v129.06ZM406.58,422.51v-129.06c35.64,0,64.53,28.89,64.53,64.53s-28.89,64.53-64.53,64.53Z"/>
</svg>