<?xml version="1.0" encoding="UTF-8"?>
<svg id="Layer_1" data-name="Layer 1" xmlns="http://www.w3.org/2000/svg" viewBox="0 0 512 512">
  <defs>
    <style>
      .cls-1 {
        fill: #383838;
        stroke-width: 0px;
      }
    </style>
  </defs>
  <path class="cls-1" d="M405.06,180.69v-28.62c0-74.54-53.54-140.11-127.34-150.53C185.74-11.45,106.94,59.6,106.94,149.06v31.63c-39.7,16.9-65.38,55.1-65.44,97.34v127.62c.07,58.71,48.86,106.28,109.07,106.35h210.86c60.21-.07,108.99-47.65,109.07-106.35v-127.62c-.06-42.24-25.74-80.44-65.44-97.34ZM150.57,148.99c0-60.33,49.8-108.93,110.2-106.25,56.91,2.53,100.66,51.74,100.66,108.71v18.81h-210.86v-21.27ZM363.06,468.37h-214.12c-35.24,0-63.81-28.57-63.81-63.81v-126.86c0-35.24,28.57-63.81,63.81-63.81h214.12c35.24,0,63.81,28.57,63.81,63.81v126.86c0,35.24-28.57,63.81-63.81,63.81Z"/>
  <path class="cls-1" d="M230.55,319.08v42.67c0,9.4,5.68,18.27,14.63,21.14,15.09,4.84,29-6.29,29-20.66v-43.63c0-14.38-13.91-25.5-29-20.66-8.95,2.87-14.63,11.74-14.63,21.14Z"/>
</svg>