<?xml version="1.0" encoding="UTF-8"?>
<svg id="Layer_1" data-name="Layer 1" xmlns="http://www.w3.org/2000/svg" viewBox="0 0 512 512">
  <defs>
    <style>
      .cls-1 {
        fill: #383838;
        stroke-width: 0px;
      }
    </style>
  </defs>
  <path class="cls-1" d="M508.41,191.76c-8.96-28.52-35.54-47.82-65.44-47.5h-93.22l-27.52-85.76c-8.67-27.02-32.07-48.03-60.37-50.16-33.49-2.53-62.09,18.11-71.57,47.67l-28.31,88.25h-93.22c-44.19.06-78.59,41.74-66.2,87.9,4.14,15.43,14.58,28.44,27.48,37.87l74.06,54.15-28.85,89.34c-9.57,28.46.7,59.82,25.26,77.09,24.14,17.82,57.12,17.66,81.08-.41l74.27-54.67,72.21,53.07c22.83,16.78,54.03,20.09,78.19,5.3,28.6-17.51,39.74-50.89,30.22-80.39l-28.85-89.34,75.96-55.48c24.33-17.37,34.41-48.63,24.81-76.94ZM458.41,222.06l-88.42,72.24c-7.45,5.43-10.57,15.04-7.72,23.81l33.61,103.91c4.44,13.76-3.12,28.51-16.88,32.95-8.01,2.58-16.78,1.16-23.56-3.83l-86.95-64.01c-7.52-5.52-17.75-5.52-25.26,0l-86.95,64.01c-11.59,8.65-27.99,6.26-36.64-5.32-5.09-6.83-6.55-15.71-3.9-23.8l33.71-103.91c2.84-8.77-.27-18.38-7.72-23.81l-88.42-64.63c-11.67-8.54-14.2-24.92-5.66-36.59,4.93-6.73,12.77-10.71,21.11-9.91h108.82c9.27-.8,17.48-6.78,20.31-15.61l33.07-103.08c4.43-13.76,19.18-21.33,32.94-16.9,8.03,2.58,14.32,8.87,16.9,16.9l33.07,103.08c2.84,8.82,11.04,14.81,20.31,15.61h108.82c14.46-.79,26.17,10.94,26.16,25.4,0,8.34-3.98,16.18-10.71,13.5h-.04Z"/>
</svg>