<?xml version="1.0" encoding="UTF-8"?>
<svg id="Layer_1" data-name="Layer 1" xmlns="http://www.w3.org/2000/svg" viewBox="0 0 512 512">
  <defs>
    <style>
      .cls-1 {
        fill: #383838;
        stroke-width: 0px;
      }
    </style>
  </defs>
  <path class="cls-1" d="M256,0C114.62,0,0,114.62,0,256s114.62,256,256,256,256-114.62,256-256C511.85,114.68,397.32.15,256,0ZM256,469.33c-117.82,0-213.33-95.51-213.33-213.33S138.18,42.67,256,42.67s213.33,95.51,213.33,213.33c-.13,117.77-95.57,213.2-213.33,213.33Z"/>
  <path class="cls-1" d="M278.7,118.04c-42.23-7.69-82.7,20.3-90.4,62.53-.84,4.61-1.26,9.28-1.26,13.97,0,10.73,8.7,19.43,19.43,19.43s19.43-8.7,19.43-19.43c-.02-21.46,17.37-38.88,38.83-38.9,2.43,0,4.85.22,7.24.67,15.7,3.05,27.99,15.3,31.09,30.99,3.14,16.52-4.7,33.18-19.43,41.29-24.21,14.03-38.88,40.11-38.3,68.09v14.44c0,10.73,8.7,19.43,19.43,19.43s19.43-8.7,19.43-19.43v-14.44c-.5-13.76,6.39-26.74,18.07-34.04,37.62-20.66,51.37-67.92,30.71-105.54-11.28-20.54-31.22-34.89-54.28-39.06Z"/>
  <path class="cls-1" d="M256,362.67h0c11.78,0,21.33,9.55,21.33,21.33h0c0,11.78-9.55,21.33-21.33,21.33h0c-11.78,0-21.33-9.55-21.33-21.33h0c0-11.78,9.55-21.33,21.33-21.33Z"/>
</svg>